<svg width="313" height="151" viewBox="0 0 313 151" fill="none" xmlns="http://www.w3.org/2000/svg">
<path d="M50.652 3.8016C27.336 8.6256 0 43.1976 0 67.3176C0 85.0056 26.532 110.734 45.828 110.734C60.3 110.734 80.4 87.4176 80.4 69.7296C80.4 59.2776 74.772 54.4536 62.712 54.4536C49.848 54.4536 47.436 56.8656 54.672 60.8856C66.732 68.9256 58.692 94.6536 44.22 94.6536C20.904 94.6536 17.688 52.8456 40.2 30.3336C68.34 2.1936 86.832 10.2336 154.368 78.5736C219.492 144.502 242.004 156.562 277.38 147.718C319.992 137.266 324.816 73.7496 284.616 55.2576C266.928 47.2176 259.692 48.0216 244.416 58.4736C221.904 72.9456 220.296 80.9856 237.18 94.6536C246.828 102.694 249.24 101.89 249.24 89.0256C249.24 67.3176 257.28 60.8856 270.948 71.3376C284.616 83.3976 284.616 113.95 269.34 126.814C260.496 134.05 253.26 133.246 234.768 119.578C193.764 90.6336 152.76 39.9816 158.388 25.5096C163.212 12.6456 164.016 12.6456 173.664 25.5096C180.096 34.3536 184.92 35.9616 188.94 31.1376C201.804 9.4296 169.644 -2.6304 152.76 17.4696C144.72 27.9216 139.896 27.1176 118.188 13.4496C92.46 -1.8264 84.42 -2.6304 50.652 3.8016Z" fill="black"/>
<path d="M160.8 130.835C160.8 145.307 189.744 146.915 197.784 133.247C201.804 126.815 199.392 126.011 190.548 129.227C182.508 131.639 176.88 130.835 176.88 126.815C176.88 121.991 173.664 118.775 168.84 118.775C164.82 118.775 160.8 124.403 160.8 130.835Z" fill="black"/>
</svg>
