<svg width="839" height="40" viewBox="0 0 839 40" fill="none" xmlns="http://www.w3.org/2000/svg">
<path d="M368.081 10.2564C373.805 14.9603 386 20 386 20C386 20 373.805 25.0397 368.081 29.7436C363.72 33.3277 359.122 40 359.122 40C359.122 40 239.268 34.0756 162.5 29.7436C99.0268 26.1618 0 20 0 20C0 20 99.0268 13.8382 162.5 10.2564C239.268 5.92435 359.122 0 359.122 0C359.122 0 363.72 6.67227 368.081 10.2564Z" fill="currentColor"/>
<path d="M470.919 10.2564C465.195 14.9603 453 20 453 20C453 20 465.195 25.0397 470.919 29.7436C475.28 33.3277 479.878 40 479.878 40C479.878 40 599.732 34.0756 676.5 29.7436C739.973 26.1618 839 20 839 20C839 20 739.973 13.8382 676.5 10.2564C599.732 5.92435 479.878 0 479.878 0C479.878 0 475.28 6.67227 470.919 10.2564Z" fill="currentColor"/>
<path d="M410.5 7C413.639 2.48561 418 0 418 0C418 0 422.361 2.48561 425.5 7C427.63 10.0627 429 20 429 20C429 20 427.63 29.9373 425.5 33C422.361 37.5144 418 40 418 40C418 40 413.639 37.5144 410.5 33C408.37 29.9373 407 20 407 20C407 20 408.37 10.0627 410.5 7Z" fill="currentColor"/>
</svg>
